<svg xmlns="http://www.w3.org/2000/svg" width="761.239" height="227" viewBox="0 0 761.239 227">
  <g id="Group_17" data-name="Group 17" transform="translate(-3797.761 -2856)">
    <g id="Group_5" data-name="Group 5">
      <text id="agamoto" transform="translate(3983 3007)" fill="#303778" font-size="150" font-family="Muli" font-weight="700" letter-spacing="-0.08em"><tspan x="0" y="0">agamoto</tspan></text>
      <text id="analytics" transform="translate(4552 3068)" fill="#303778" font-size="60" font-family="Muli" font-weight="300" letter-spacing="0.05em"><tspan x="-268.38" y="0">analytics</tspan></text>
    </g>
    <g id="Group_13" data-name="Group 13" transform="translate(3797.761 2899.405)">
      <path id="Path_5" data-name="Path 5" d="M70.5.03a70.369,70.369,0,1,0,70.549,70.409A70.421,70.421,0,0,0,70.5.03Zm.067,117.15a46.781,46.781,0,1,1,46.843-46.754A46.944,46.944,0,0,1,70.565,117.18Z" transform="translate(-0.03 -0.03)" fill="#303778"/>
    </g>
    <g id="Group_15" data-name="Group 15" transform="translate(3835.969 2937.537)">
      <g id="Group_14" data-name="Group 14" transform="translate(0 0)">
        <path id="Path_6" data-name="Path 6" d="M32.3.014,32.309,23.6a8.649,8.649,0,1,1-8.661,8.644L.014,32.232A32.3,32.3,0,1,0,32.3.014Z" transform="translate(-0.014 -0.014)" fill="#303778"/>
      </g>
    </g>
  </g>
</svg>
